<mxfile host="app.diagrams.net" agent="Mozilla/5.0 (Windows NT 10.0; Win64; x64) AppleWebKit/537.36 (KHTML, like Gecko) Chrome/134.0.0.0 Safari/537.36" version="26.2.14" pages="4">
  <diagram name="Overall Processes" id="OnUfQjzB-8LUTByqpTFE">
    <mxGraphModel dx="1385" dy="1841" grid="1" gridSize="10" guides="1" tooltips="1" connect="1" arrows="1" fold="1" page="1" pageScale="1" pageWidth="850" pageHeight="1100" math="0" shadow="0">
      <root>
        <mxCell id="0" />
        <mxCell id="1" parent="0" />
        <mxCell id="lsSKVMwpvzXVZ9iX6MpG-1" value="Warehouse" style="swimlane;horizontal=0;whiteSpace=wrap;html=1;" parent="1" vertex="1">
          <mxGeometry x="60" y="-700" width="1230" height="320" as="geometry">
            <mxRectangle x="60" y="-680" width="40" height="140" as="alternateBounds" />
          </mxGeometry>
        </mxCell>
        <mxCell id="lsSKVMwpvzXVZ9iX6MpG-36" style="edgeStyle=orthogonalEdgeStyle;rounded=0;orthogonalLoop=1;jettySize=auto;html=1;exitX=1;exitY=0.5;exitDx=0;exitDy=0;entryX=0;entryY=0.25;entryDx=0;entryDy=0;" parent="lsSKVMwpvzXVZ9iX6MpG-1" source="lsSKVMwpvzXVZ9iX6MpG-3" target="lsSKVMwpvzXVZ9iX6MpG-2" edge="1">
          <mxGeometry relative="1" as="geometry" />
        </mxCell>
        <mxCell id="lsSKVMwpvzXVZ9iX6MpG-3" value="P.O. Confirmed by Vendor" style="swimlane;whiteSpace=wrap;html=1;startSize=30;fillColor=#dae8fc;strokeColor=#6c8ebf;gradientColor=none;swimlaneFillColor=default;textShadow=0;labelBackgroundColor=none;rounded=1;glass=1;shadow=1;" parent="lsSKVMwpvzXVZ9iX6MpG-1" vertex="1">
          <mxGeometry x="30" y="10" width="190" height="290" as="geometry">
            <mxRectangle x="30" width="90" height="30" as="alternateBounds" />
          </mxGeometry>
        </mxCell>
        <mxCell id="lsSKVMwpvzXVZ9iX6MpG-24" value="" style="edgeStyle=orthogonalEdgeStyle;rounded=0;orthogonalLoop=1;jettySize=auto;html=1;" parent="lsSKVMwpvzXVZ9iX6MpG-3" source="lsSKVMwpvzXVZ9iX6MpG-22" target="lsSKVMwpvzXVZ9iX6MpG-23" edge="1">
          <mxGeometry relative="1" as="geometry" />
        </mxCell>
        <mxCell id="lsSKVMwpvzXVZ9iX6MpG-22" value="Vendor Reaches out to Receiving" style="rounded=0;whiteSpace=wrap;html=1;fillColor=#d5e8d4;strokeColor=#82b366;" parent="lsSKVMwpvzXVZ9iX6MpG-3" vertex="1">
          <mxGeometry x="37.5" y="40" width="95" height="30" as="geometry" />
        </mxCell>
        <mxCell id="lsSKVMwpvzXVZ9iX6MpG-27" value="" style="edgeStyle=orthogonalEdgeStyle;rounded=0;orthogonalLoop=1;jettySize=auto;html=1;" parent="lsSKVMwpvzXVZ9iX6MpG-3" source="lsSKVMwpvzXVZ9iX6MpG-23" target="lsSKVMwpvzXVZ9iX6MpG-26" edge="1">
          <mxGeometry relative="1" as="geometry" />
        </mxCell>
        <mxCell id="lsSKVMwpvzXVZ9iX6MpG-23" value="Receiving Schedules delivery" style="whiteSpace=wrap;html=1;rounded=0;fillColor=#d5e8d4;strokeColor=#82b366;" parent="lsSKVMwpvzXVZ9iX6MpG-3" vertex="1">
          <mxGeometry x="31.25" y="91" width="107.5" height="40" as="geometry" />
        </mxCell>
        <mxCell id="lsSKVMwpvzXVZ9iX6MpG-26" value="Delivery is added to Receiving calendar with PO#" style="whiteSpace=wrap;html=1;rounded=0;fillColor=#d5e8d4;strokeColor=#82b366;" parent="lsSKVMwpvzXVZ9iX6MpG-3" vertex="1">
          <mxGeometry x="25" y="154" width="120" height="60" as="geometry" />
        </mxCell>
        <mxCell id="lsSKVMwpvzXVZ9iX6MpG-41" value="" style="edgeStyle=orthogonalEdgeStyle;rounded=0;orthogonalLoop=1;jettySize=auto;html=1;" parent="lsSKVMwpvzXVZ9iX6MpG-1" source="lsSKVMwpvzXVZ9iX6MpG-2" target="lsSKVMwpvzXVZ9iX6MpG-39" edge="1">
          <mxGeometry relative="1" as="geometry" />
        </mxCell>
        <UserObject label="Product Arrives at Warehosue" link="www.google.com" id="lsSKVMwpvzXVZ9iX6MpG-2">
          <mxCell style="swimlane;whiteSpace=wrap;html=1;startSize=30;rounded=1;glass=0;fillColor=#dae8fc;gradientColor=#7ea6e0;strokeColor=#6c8ebf;swimlaneFillColor=default;arcSize=19;" parent="lsSKVMwpvzXVZ9iX6MpG-1" vertex="1">
            <mxGeometry x="252" y="9" width="180" height="251" as="geometry">
              <mxRectangle x="250" y="9" width="200" height="30" as="alternateBounds" />
            </mxGeometry>
          </mxCell>
        </UserObject>
        <mxCell id="lsSKVMwpvzXVZ9iX6MpG-35" value="" style="edgeStyle=orthogonalEdgeStyle;rounded=0;orthogonalLoop=1;jettySize=auto;html=1;" parent="lsSKVMwpvzXVZ9iX6MpG-2" source="lsSKVMwpvzXVZ9iX6MpG-32" target="lsSKVMwpvzXVZ9iX6MpG-34" edge="1">
          <mxGeometry relative="1" as="geometry" />
        </mxCell>
        <mxCell id="lsSKVMwpvzXVZ9iX6MpG-32" value="Order Verification &amp;amp; Quality Check" style="rounded=0;whiteSpace=wrap;html=1;fillColor=#fff2cc;strokeColor=#d6b656;" parent="lsSKVMwpvzXVZ9iX6MpG-2" vertex="1">
          <mxGeometry x="40" y="40" width="100" height="40" as="geometry" />
        </mxCell>
        <mxCell id="lsSKVMwpvzXVZ9iX6MpG-38" value="" style="edgeStyle=orthogonalEdgeStyle;rounded=0;orthogonalLoop=1;jettySize=auto;html=1;" parent="lsSKVMwpvzXVZ9iX6MpG-2" source="lsSKVMwpvzXVZ9iX6MpG-34" target="lsSKVMwpvzXVZ9iX6MpG-37" edge="1">
          <mxGeometry relative="1" as="geometry" />
        </mxCell>
        <mxCell id="lsSKVMwpvzXVZ9iX6MpG-34" value="Product Get&#39;s Received" style="rounded=0;whiteSpace=wrap;html=1;fillColor=#fff2cc;strokeColor=#d6b656;" parent="lsSKVMwpvzXVZ9iX6MpG-2" vertex="1">
          <mxGeometry x="45" y="100" width="90" height="40" as="geometry" />
        </mxCell>
        <UserObject label="Product is stocked onto shelves" id="lsSKVMwpvzXVZ9iX6MpG-37">
          <mxCell style="whiteSpace=wrap;html=1;fillColor=#fff2cc;strokeColor=#d6b656;rounded=0;" parent="lsSKVMwpvzXVZ9iX6MpG-2" vertex="1">
            <mxGeometry x="8" y="171" width="90" height="40" as="geometry" />
          </mxCell>
        </UserObject>
        <mxCell id="lsSKVMwpvzXVZ9iX6MpG-4" value="Product Prepped for Fulfillment" style="swimlane;whiteSpace=wrap;html=1;startSize=23;fillColor=#dae8fc;strokeColor=#6c8ebf;swimlaneFillColor=default;gradientColor=#7ea6e0;rounded=1;glass=1;" parent="lsSKVMwpvzXVZ9iX6MpG-1" vertex="1">
          <mxGeometry x="440" y="10" width="180" height="260" as="geometry" />
        </mxCell>
        <mxCell id="lsSKVMwpvzXVZ9iX6MpG-5" value="Select Customer Orders for Ship" style="swimlane;whiteSpace=wrap;html=1;startSize=23;" parent="lsSKVMwpvzXVZ9iX6MpG-1" vertex="1">
          <mxGeometry x="630" width="200" height="260" as="geometry" />
        </mxCell>
        <mxCell id="lsSKVMwpvzXVZ9iX6MpG-7" value="Pick and Stage Orders" style="swimlane;whiteSpace=wrap;html=1;startSize=23;" parent="lsSKVMwpvzXVZ9iX6MpG-1" vertex="1">
          <mxGeometry x="830" width="200" height="260" as="geometry" />
        </mxCell>
        <mxCell id="lsSKVMwpvzXVZ9iX6MpG-8" value="Load Customer Orders" style="swimlane;whiteSpace=wrap;html=1;startSize=23;" parent="lsSKVMwpvzXVZ9iX6MpG-1" vertex="1">
          <mxGeometry x="1030" width="200" height="260" as="geometry" />
        </mxCell>
        <mxCell id="lsSKVMwpvzXVZ9iX6MpG-39" value="Replenish Pick Slots" style="whiteSpace=wrap;html=1;fillColor=#fff2cc;strokeColor=#d6b656;rounded=0;" parent="lsSKVMwpvzXVZ9iX6MpG-1" vertex="1">
          <mxGeometry x="293" y="270" width="98" height="41" as="geometry" />
        </mxCell>
        <mxCell id="lsSKVMwpvzXVZ9iX6MpG-9" value="Transportation" style="swimlane;horizontal=0;whiteSpace=wrap;html=1;" parent="1" vertex="1">
          <mxGeometry x="60" y="-330" width="1230" height="260" as="geometry">
            <mxRectangle x="50" y="140" width="40" height="140" as="alternateBounds" />
          </mxGeometry>
        </mxCell>
        <mxCell id="lsSKVMwpvzXVZ9iX6MpG-10" value="Customer Orders Routed" style="swimlane;whiteSpace=wrap;html=1;startSize=23;" parent="lsSKVMwpvzXVZ9iX6MpG-9" vertex="1">
          <mxGeometry x="30" width="200" height="260" as="geometry">
            <mxRectangle x="30" width="90" height="30" as="alternateBounds" />
          </mxGeometry>
        </mxCell>
        <mxCell id="lsSKVMwpvzXVZ9iX6MpG-11" value="Driver Prep&#39;s Equipment" style="swimlane;whiteSpace=wrap;html=1;startSize=23;" parent="lsSKVMwpvzXVZ9iX6MpG-9" vertex="1">
          <mxGeometry x="230" width="200" height="260" as="geometry" />
        </mxCell>
        <mxCell id="lsSKVMwpvzXVZ9iX6MpG-12" value="Product In-Transit" style="swimlane;whiteSpace=wrap;html=1;startSize=23;" parent="lsSKVMwpvzXVZ9iX6MpG-9" vertex="1">
          <mxGeometry x="430" width="200" height="260" as="geometry" />
        </mxCell>
        <mxCell id="lsSKVMwpvzXVZ9iX6MpG-13" value="Order Arrives to Customer" style="swimlane;whiteSpace=wrap;html=1;startSize=23;" parent="lsSKVMwpvzXVZ9iX6MpG-9" vertex="1">
          <mxGeometry x="630" width="200" height="260" as="geometry" />
        </mxCell>
        <mxCell id="lsSKVMwpvzXVZ9iX6MpG-14" value="Recover Equipment @ Customrs" style="swimlane;whiteSpace=wrap;html=1;startSize=23;" parent="lsSKVMwpvzXVZ9iX6MpG-9" vertex="1">
          <mxGeometry x="830" width="200" height="260" as="geometry" />
        </mxCell>
        <mxCell id="lsSKVMwpvzXVZ9iX6MpG-15" value="Return Home" style="swimlane;whiteSpace=wrap;html=1;startSize=23;" parent="lsSKVMwpvzXVZ9iX6MpG-9" vertex="1">
          <mxGeometry x="1030" width="200" height="260" as="geometry" />
        </mxCell>
      </root>
    </mxGraphModel>
  </diagram>
  <diagram id="iRfpWnOMGTLEs27aycEe" name="Returns Process">
    <mxGraphModel dx="1001" dy="526" grid="1" gridSize="10" guides="1" tooltips="1" connect="1" arrows="1" fold="1" page="1" pageScale="1" pageWidth="850" pageHeight="1100" background="#66B2FF" math="0" shadow="0" adaptiveColors="auto">
      <root>
        <mxCell id="0" />
        <mxCell id="1" parent="0" />
        <mxCell id="iCNufZjwy928AqagM9BR-1" value="Return Identified" style="whiteSpace=wrap;strokeWidth=2;labelBackgroundColor=none;rounded=1;" vertex="1" parent="1">
          <mxGeometry x="389" y="20" width="182" height="54" as="geometry" />
        </mxCell>
        <mxCell id="iCNufZjwy928AqagM9BR-2" value="Is it Guaranteed?" style="rhombus;strokeWidth=2;whiteSpace=wrap;labelBackgroundColor=none;rounded=1;" vertex="1" parent="1">
          <mxGeometry x="393" y="124" width="175" height="175" as="geometry" />
        </mxCell>
        <mxCell id="iCNufZjwy928AqagM9BR-3" value="Verify Product Matches Credit Request Sheet" style="whiteSpace=wrap;strokeWidth=2;labelBackgroundColor=none;rounded=1;" vertex="1" parent="1">
          <mxGeometry x="264" y="372" width="260" height="78" as="geometry" />
        </mxCell>
        <mxCell id="iCNufZjwy928AqagM9BR-4" value="Is Credit Request Sheet Properly Filled?" style="rhombus;strokeWidth=2;whiteSpace=wrap;labelBackgroundColor=none;rounded=1;" vertex="1" parent="1">
          <mxGeometry x="255" y="500" width="278" height="278" as="geometry" />
        </mxCell>
        <mxCell id="iCNufZjwy928AqagM9BR-5" value="Issue Credit to Customer" style="whiteSpace=wrap;strokeWidth=2;labelBackgroundColor=none;rounded=1;" vertex="1" parent="1">
          <mxGeometry x="126" y="863" width="237" height="54" as="geometry" />
        </mxCell>
        <mxCell id="iCNufZjwy928AqagM9BR-6" value="Reason Code Indicates Restock Fee?" style="rhombus;strokeWidth=2;whiteSpace=wrap;labelBackgroundColor=none;rounded=1;" vertex="1" parent="1">
          <mxGeometry x="105" y="979" width="278" height="278" as="geometry" />
        </mxCell>
        <mxCell id="iCNufZjwy928AqagM9BR-7" value="Apply Restock Fee" style="whiteSpace=wrap;strokeWidth=2;labelBackgroundColor=none;rounded=1;" vertex="1" parent="1">
          <mxGeometry x="20" y="1342" width="190" height="54" as="geometry" />
        </mxCell>
        <mxCell id="iCNufZjwy928AqagM9BR-8" value="No Restock Fee Applied" style="whiteSpace=wrap;strokeWidth=2;labelBackgroundColor=none;rounded=1;" vertex="1" parent="1">
          <mxGeometry x="260" y="1342" width="227" height="54" as="geometry" />
        </mxCell>
        <mxCell id="iCNufZjwy928AqagM9BR-9" value="Determine Product Disposition" style="whiteSpace=wrap;strokeWidth=2;labelBackgroundColor=none;rounded=1;" vertex="1" parent="1">
          <mxGeometry x="244" y="1458" width="260" height="78" as="geometry" />
        </mxCell>
        <mxCell id="iCNufZjwy928AqagM9BR-10" value="Return to Customer for Correction" style="whiteSpace=wrap;strokeWidth=2;labelBackgroundColor=none;rounded=1;" vertex="1" parent="1">
          <mxGeometry x="457" y="851" width="260" height="78" as="geometry" />
        </mxCell>
        <mxCell id="iCNufZjwy928AqagM9BR-11" value="Handle as Non-Guaranteed Return" style="whiteSpace=wrap;strokeWidth=2;labelBackgroundColor=none;rounded=1;" vertex="1" parent="1">
          <mxGeometry x="627" y="1330" width="260" height="78" as="geometry" />
        </mxCell>
        <mxCell id="iCNufZjwy928AqagM9BR-12" value="Is Product Sellable and FSMA-Compliant?" style="rhombus;strokeWidth=2;whiteSpace=wrap;labelBackgroundColor=none;rounded=1;" vertex="1" parent="1">
          <mxGeometry x="235" y="1586" width="278" height="278" as="geometry" />
        </mxCell>
        <mxCell id="iCNufZjwy928AqagM9BR-13" value="Stock at Front of Pick Slot" style="whiteSpace=wrap;strokeWidth=2;labelBackgroundColor=none;rounded=1;" vertex="1" parent="1">
          <mxGeometry x="201" y="2049" width="246" height="54" as="geometry" />
        </mxCell>
        <mxCell id="iCNufZjwy928AqagM9BR-14" value="Disposition: Vendor Bin, In-Stock, or Disposal" style="rhombus;strokeWidth=2;whiteSpace=wrap;labelBackgroundColor=none;rounded=1;" vertex="1" parent="1">
          <mxGeometry x="498" y="1937" width="278" height="278" as="geometry" />
        </mxCell>
        <mxCell id="iCNufZjwy928AqagM9BR-15" value="Proceed to Vendor Closeout" style="whiteSpace=wrap;strokeWidth=2;labelBackgroundColor=none;rounded=1;" vertex="1" parent="1">
          <mxGeometry x="245" y="2265" width="258" height="54" as="geometry" />
        </mxCell>
        <UserObject label="Vendor Closeout Process" link="data:page/id,ZD5wll1Oz0Af_e3OQdJd" id="iCNufZjwy928AqagM9BR-16">
          <mxCell style="whiteSpace=wrap;strokeWidth=2;labelBackgroundColor=none;rounded=1;" vertex="1" parent="1">
            <mxGeometry x="257" y="2369" width="234" height="54" as="geometry" />
          </mxCell>
        </UserObject>
        <mxCell id="iCNufZjwy928AqagM9BR-17" value="" style="curved=1;startArrow=none;endArrow=block;exitX=0.5;exitY=1;entryX=0.5;entryY=0;rounded=1;labelBackgroundColor=none;fontColor=default;" edge="1" parent="1" source="iCNufZjwy928AqagM9BR-1" target="iCNufZjwy928AqagM9BR-2">
          <mxGeometry relative="1" as="geometry">
            <Array as="points" />
          </mxGeometry>
        </mxCell>
        <mxCell id="iCNufZjwy928AqagM9BR-18" value="Yes" style="curved=1;startArrow=none;endArrow=block;exitX=0.15;exitY=1;entryX=0.5;entryY=0.01;rounded=1;labelBackgroundColor=none;fontColor=default;" edge="1" parent="1" source="iCNufZjwy928AqagM9BR-2" target="iCNufZjwy928AqagM9BR-3">
          <mxGeometry relative="1" as="geometry">
            <Array as="points">
              <mxPoint x="394" y="336" />
            </Array>
          </mxGeometry>
        </mxCell>
        <mxCell id="iCNufZjwy928AqagM9BR-19" value="" style="curved=1;startArrow=none;endArrow=block;exitX=0.5;exitY=1.01;entryX=0.5;entryY=0;rounded=1;labelBackgroundColor=none;fontColor=default;" edge="1" parent="1" source="iCNufZjwy928AqagM9BR-3" target="iCNufZjwy928AqagM9BR-4">
          <mxGeometry relative="1" as="geometry">
            <Array as="points" />
          </mxGeometry>
        </mxCell>
        <mxCell id="iCNufZjwy928AqagM9BR-20" value="Yes" style="curved=1;startArrow=none;endArrow=block;exitX=0.07;exitY=1;entryX=0.5;entryY=0.01;rounded=1;labelBackgroundColor=none;fontColor=default;" edge="1" parent="1" source="iCNufZjwy928AqagM9BR-4" target="iCNufZjwy928AqagM9BR-5">
          <mxGeometry relative="1" as="geometry">
            <Array as="points">
              <mxPoint x="244" y="815" />
            </Array>
          </mxGeometry>
        </mxCell>
        <mxCell id="iCNufZjwy928AqagM9BR-21" value="" style="curved=1;startArrow=none;endArrow=block;exitX=0.5;exitY=1.01;entryX=0.5;entryY=0;rounded=1;labelBackgroundColor=none;fontColor=default;" edge="1" parent="1" source="iCNufZjwy928AqagM9BR-5" target="iCNufZjwy928AqagM9BR-6">
          <mxGeometry relative="1" as="geometry">
            <Array as="points" />
          </mxGeometry>
        </mxCell>
        <mxCell id="iCNufZjwy928AqagM9BR-22" value="Yes" style="curved=1;startArrow=none;endArrow=block;exitX=0.13;exitY=1;entryX=0.5;entryY=0.01;rounded=1;labelBackgroundColor=none;fontColor=default;" edge="1" parent="1" source="iCNufZjwy928AqagM9BR-6" target="iCNufZjwy928AqagM9BR-7">
          <mxGeometry relative="1" as="geometry">
            <Array as="points">
              <mxPoint x="115" y="1294" />
            </Array>
          </mxGeometry>
        </mxCell>
        <mxCell id="iCNufZjwy928AqagM9BR-23" value="No" style="curved=1;startArrow=none;endArrow=block;exitX=0.87;exitY=1;entryX=0.5;entryY=0.01;rounded=1;labelBackgroundColor=none;fontColor=default;" edge="1" parent="1" source="iCNufZjwy928AqagM9BR-6" target="iCNufZjwy928AqagM9BR-8">
          <mxGeometry relative="1" as="geometry">
            <Array as="points">
              <mxPoint x="374" y="1294" />
            </Array>
          </mxGeometry>
        </mxCell>
        <mxCell id="iCNufZjwy928AqagM9BR-24" value="" style="curved=1;startArrow=none;endArrow=block;exitX=0.5;exitY=1.01;entryX=0;entryY=0.09;rounded=1;labelBackgroundColor=none;fontColor=default;" edge="1" parent="1" source="iCNufZjwy928AqagM9BR-7" target="iCNufZjwy928AqagM9BR-9">
          <mxGeometry relative="1" as="geometry">
            <Array as="points">
              <mxPoint x="115" y="1433" />
            </Array>
          </mxGeometry>
        </mxCell>
        <mxCell id="iCNufZjwy928AqagM9BR-25" value="" style="curved=1;startArrow=none;endArrow=block;exitX=0.5;exitY=1.01;entryX=0.5;entryY=0.01;rounded=1;labelBackgroundColor=none;fontColor=default;" edge="1" parent="1" source="iCNufZjwy928AqagM9BR-8" target="iCNufZjwy928AqagM9BR-9">
          <mxGeometry relative="1" as="geometry">
            <Array as="points" />
          </mxGeometry>
        </mxCell>
        <mxCell id="iCNufZjwy928AqagM9BR-26" value="No" style="curved=1;startArrow=none;endArrow=block;exitX=1;exitY=0.95;entryX=0.5;entryY=0.01;rounded=1;labelBackgroundColor=none;fontColor=default;" edge="1" parent="1" source="iCNufZjwy928AqagM9BR-4" target="iCNufZjwy928AqagM9BR-10">
          <mxGeometry relative="1" as="geometry">
            <Array as="points">
              <mxPoint x="587" y="815" />
            </Array>
          </mxGeometry>
        </mxCell>
        <mxCell id="iCNufZjwy928AqagM9BR-27" value="No" style="curved=1;startArrow=none;endArrow=block;exitX=1;exitY=0.73;entryX=0.5;entryY=0.01;rounded=1;labelBackgroundColor=none;fontColor=default;" edge="1" parent="1" source="iCNufZjwy928AqagM9BR-2" target="iCNufZjwy928AqagM9BR-11">
          <mxGeometry relative="1" as="geometry">
            <Array as="points">
              <mxPoint x="757" y="336" />
            </Array>
          </mxGeometry>
        </mxCell>
        <mxCell id="iCNufZjwy928AqagM9BR-28" value="" style="curved=1;startArrow=none;endArrow=block;exitX=0.5;exitY=1.01;entryX=1;entryY=0.23;rounded=1;labelBackgroundColor=none;fontColor=default;" edge="1" parent="1" source="iCNufZjwy928AqagM9BR-11" target="iCNufZjwy928AqagM9BR-9">
          <mxGeometry relative="1" as="geometry">
            <Array as="points">
              <mxPoint x="757" y="1433" />
            </Array>
          </mxGeometry>
        </mxCell>
        <mxCell id="iCNufZjwy928AqagM9BR-29" value="" style="curved=1;startArrow=none;endArrow=block;exitX=0.5;exitY=1.01;entryX=0.5;entryY=0;rounded=1;labelBackgroundColor=none;fontColor=default;" edge="1" parent="1" source="iCNufZjwy928AqagM9BR-9" target="iCNufZjwy928AqagM9BR-12">
          <mxGeometry relative="1" as="geometry">
            <Array as="points" />
          </mxGeometry>
        </mxCell>
        <mxCell id="iCNufZjwy928AqagM9BR-30" value="Yes" style="curved=1;startArrow=none;endArrow=block;exitX=0.36;exitY=1;entryX=0.5;entryY=0.01;rounded=1;labelBackgroundColor=none;fontColor=default;" edge="1" parent="1" source="iCNufZjwy928AqagM9BR-12" target="iCNufZjwy928AqagM9BR-13">
          <mxGeometry relative="1" as="geometry">
            <Array as="points">
              <mxPoint x="324" y="1901" />
            </Array>
          </mxGeometry>
        </mxCell>
        <mxCell id="iCNufZjwy928AqagM9BR-31" value="No" style="curved=1;startArrow=none;endArrow=block;exitX=1;exitY=0.84;entryX=0.5;entryY=0;rounded=1;labelBackgroundColor=none;fontColor=default;" edge="1" parent="1" source="iCNufZjwy928AqagM9BR-12" target="iCNufZjwy928AqagM9BR-14">
          <mxGeometry relative="1" as="geometry">
            <Array as="points">
              <mxPoint x="637" y="1901" />
            </Array>
          </mxGeometry>
        </mxCell>
        <mxCell id="iCNufZjwy928AqagM9BR-32" value="" style="curved=1;startArrow=none;endArrow=block;exitX=0.5;exitY=1.01;entryX=0.4;entryY=0.01;rounded=1;labelBackgroundColor=none;fontColor=default;" edge="1" parent="1" source="iCNufZjwy928AqagM9BR-13" target="iCNufZjwy928AqagM9BR-15">
          <mxGeometry relative="1" as="geometry">
            <Array as="points">
              <mxPoint x="324" y="2240" />
            </Array>
          </mxGeometry>
        </mxCell>
        <mxCell id="iCNufZjwy928AqagM9BR-33" value="" style="curved=1;startArrow=none;endArrow=block;exitX=0.5;exitY=1;entryX=1;entryY=0.04;rounded=1;labelBackgroundColor=none;fontColor=default;" edge="1" parent="1" source="iCNufZjwy928AqagM9BR-14" target="iCNufZjwy928AqagM9BR-15">
          <mxGeometry relative="1" as="geometry">
            <Array as="points">
              <mxPoint x="637" y="2240" />
            </Array>
          </mxGeometry>
        </mxCell>
        <mxCell id="iCNufZjwy928AqagM9BR-34" value="" style="curved=1;startArrow=none;endArrow=block;exitX=0.5;exitY=1.01;entryX=0.5;entryY=0.01;rounded=1;labelBackgroundColor=none;fontColor=default;" edge="1" parent="1" source="iCNufZjwy928AqagM9BR-15" target="iCNufZjwy928AqagM9BR-16">
          <mxGeometry relative="1" as="geometry">
            <Array as="points" />
          </mxGeometry>
        </mxCell>
      </root>
    </mxGraphModel>
  </diagram>
  <diagram id="2P2bHFm5ETQi78l88KcC" name="Cycle Counts">
    <mxGraphModel dx="1009" dy="521" grid="1" gridSize="10" guides="1" tooltips="1" connect="1" arrows="1" fold="1" page="1" pageScale="1" pageWidth="850" pageHeight="1100" math="0" shadow="0">
      <root>
        <mxCell id="0" />
        <mxCell id="1" parent="0" />
        <mxCell id="4GWgdeCQstLEpQiAV-2L-1" value="Cycle Count Process" style="text;html=1;align=center;verticalAlign=middle;whiteSpace=wrap;rounded=0;" vertex="1" parent="1">
          <mxGeometry x="370" y="20" width="90" height="30" as="geometry" />
        </mxCell>
        <mxCell id="4GWgdeCQstLEpQiAV-2L-4" value="" style="edgeStyle=orthogonalEdgeStyle;rounded=0;orthogonalLoop=1;jettySize=auto;html=1;" edge="1" parent="1" source="4GWgdeCQstLEpQiAV-2L-2" target="4GWgdeCQstLEpQiAV-2L-3">
          <mxGeometry relative="1" as="geometry" />
        </mxCell>
        <mxCell id="4GWgdeCQstLEpQiAV-2L-2" value="Cycle Count Triggered by Frequency" style="rounded=1;whiteSpace=wrap;html=1;fillColor=#dae8fc;strokeColor=#6c8ebf;glass=0;" vertex="1" parent="1">
          <mxGeometry x="355" y="160" width="120" height="60" as="geometry" />
        </mxCell>
        <mxCell id="4GWgdeCQstLEpQiAV-2L-8" value="" style="edgeStyle=orthogonalEdgeStyle;rounded=0;orthogonalLoop=1;jettySize=auto;html=1;" edge="1" parent="1" source="4GWgdeCQstLEpQiAV-2L-3" target="4GWgdeCQstLEpQiAV-2L-7">
          <mxGeometry relative="1" as="geometry" />
        </mxCell>
        <mxCell id="4GWgdeCQstLEpQiAV-2L-3" value="Pull information from AS400 for that area&amp;nbsp;" style="whiteSpace=wrap;html=1;fillColor=#dae8fc;strokeColor=#6c8ebf;rounded=1;glass=0;" vertex="1" parent="1">
          <mxGeometry x="355" y="240" width="120" height="60" as="geometry" />
        </mxCell>
        <mxCell id="4GWgdeCQstLEpQiAV-2L-5" value="Closeout Completes" style="rounded=1;whiteSpace=wrap;html=1;fillColor=#f8cecc;strokeColor=#b85450;" vertex="1" parent="1">
          <mxGeometry x="355" y="70" width="120" height="50" as="geometry" />
        </mxCell>
        <mxCell id="4GWgdeCQstLEpQiAV-2L-10" value="" style="edgeStyle=orthogonalEdgeStyle;rounded=0;orthogonalLoop=1;jettySize=auto;html=1;" edge="1" parent="1" source="4GWgdeCQstLEpQiAV-2L-7" target="4GWgdeCQstLEpQiAV-2L-9">
          <mxGeometry relative="1" as="geometry" />
        </mxCell>
        <mxCell id="4GWgdeCQstLEpQiAV-2L-7" value="Build Report" style="rounded=1;whiteSpace=wrap;html=1;fillColor=#dae8fc;strokeColor=#6c8ebf;glass=0;" vertex="1" parent="1">
          <mxGeometry x="355" y="350" width="120" height="60" as="geometry" />
        </mxCell>
        <mxCell id="4GWgdeCQstLEpQiAV-2L-14" value="" style="edgeStyle=orthogonalEdgeStyle;rounded=0;orthogonalLoop=1;jettySize=auto;html=1;" edge="1" parent="1" source="4GWgdeCQstLEpQiAV-2L-9" target="4GWgdeCQstLEpQiAV-2L-13">
          <mxGeometry relative="1" as="geometry" />
        </mxCell>
        <mxCell id="4GWgdeCQstLEpQiAV-2L-9" value="Physically Count Product" style="whiteSpace=wrap;html=1;fillColor=#dae8fc;strokeColor=#6c8ebf;rounded=1;glass=0;" vertex="1" parent="1">
          <mxGeometry x="355" y="450" width="120" height="60" as="geometry" />
        </mxCell>
        <mxCell id="4GWgdeCQstLEpQiAV-2L-16" value="" style="edgeStyle=orthogonalEdgeStyle;rounded=0;orthogonalLoop=1;jettySize=auto;html=1;" edge="1" parent="1" source="4GWgdeCQstLEpQiAV-2L-11" target="4GWgdeCQstLEpQiAV-2L-15">
          <mxGeometry relative="1" as="geometry" />
        </mxCell>
        <mxCell id="4GWgdeCQstLEpQiAV-2L-17" value="NO" style="edgeLabel;html=1;align=center;verticalAlign=middle;resizable=0;points=[];" vertex="1" connectable="0" parent="4GWgdeCQstLEpQiAV-2L-16">
          <mxGeometry x="-0.072" y="4" relative="1" as="geometry">
            <mxPoint as="offset" />
          </mxGeometry>
        </mxCell>
        <mxCell id="4GWgdeCQstLEpQiAV-2L-19" value="" style="edgeStyle=orthogonalEdgeStyle;rounded=0;orthogonalLoop=1;jettySize=auto;html=1;" edge="1" parent="1" source="4GWgdeCQstLEpQiAV-2L-11" target="4GWgdeCQstLEpQiAV-2L-18">
          <mxGeometry relative="1" as="geometry" />
        </mxCell>
        <mxCell id="4GWgdeCQstLEpQiAV-2L-20" value="YES" style="edgeLabel;html=1;align=center;verticalAlign=middle;resizable=0;points=[];" vertex="1" connectable="0" parent="4GWgdeCQstLEpQiAV-2L-19">
          <mxGeometry x="-0.1478" y="4" relative="1" as="geometry">
            <mxPoint as="offset" />
          </mxGeometry>
        </mxCell>
        <mxCell id="4GWgdeCQstLEpQiAV-2L-11" value="Do we have Descrepencies" style="rhombus;whiteSpace=wrap;html=1;" vertex="1" parent="1">
          <mxGeometry x="355" y="640" width="120" height="120" as="geometry" />
        </mxCell>
        <mxCell id="4GWgdeCQstLEpQiAV-2L-13" value="Reconcile Count &amp;amp; Paperwork" style="whiteSpace=wrap;html=1;fillColor=#dae8fc;strokeColor=#6c8ebf;rounded=1;glass=0;" vertex="1" parent="1">
          <mxGeometry x="355" y="550" width="120" height="60" as="geometry" />
        </mxCell>
        <mxCell id="4GWgdeCQstLEpQiAV-2L-15" value="Build email communication and send report with counts" style="rounded=1;whiteSpace=wrap;html=1;fillColor=#d5e8d4;strokeColor=#82b366;" vertex="1" parent="1">
          <mxGeometry x="110" y="670" width="120" height="60" as="geometry" />
        </mxCell>
        <mxCell id="4GWgdeCQstLEpQiAV-2L-22" value="" style="edgeStyle=orthogonalEdgeStyle;rounded=0;orthogonalLoop=1;jettySize=auto;html=1;" edge="1" parent="1" source="4GWgdeCQstLEpQiAV-2L-18" target="4GWgdeCQstLEpQiAV-2L-21">
          <mxGeometry relative="1" as="geometry" />
        </mxCell>
        <mxCell id="4GWgdeCQstLEpQiAV-2L-18" value="Inventory Investigation" style="whiteSpace=wrap;html=1;" vertex="1" parent="1">
          <mxGeometry x="590" y="670" width="120" height="60" as="geometry" />
        </mxCell>
        <mxCell id="4GWgdeCQstLEpQiAV-2L-24" value="" style="edgeStyle=orthogonalEdgeStyle;rounded=0;orthogonalLoop=1;jettySize=auto;html=1;" edge="1" parent="1" source="4GWgdeCQstLEpQiAV-2L-21" target="4GWgdeCQstLEpQiAV-2L-23">
          <mxGeometry relative="1" as="geometry" />
        </mxCell>
        <mxCell id="4GWgdeCQstLEpQiAV-2L-21" value="Double count product to verify" style="whiteSpace=wrap;html=1;" vertex="1" parent="1">
          <mxGeometry x="590" y="770" width="120" height="60" as="geometry" />
        </mxCell>
        <mxCell id="4GWgdeCQstLEpQiAV-2L-26" value="" style="edgeStyle=orthogonalEdgeStyle;rounded=0;orthogonalLoop=1;jettySize=auto;html=1;" edge="1" parent="1" source="4GWgdeCQstLEpQiAV-2L-23" target="4GWgdeCQstLEpQiAV-2L-25">
          <mxGeometry relative="1" as="geometry" />
        </mxCell>
        <mxCell id="4GWgdeCQstLEpQiAV-2L-23" value="Do research: Returns, Receiving vs. Put away, &amp;amp; Billing or picking issues from previous period." style="whiteSpace=wrap;html=1;" vertex="1" parent="1">
          <mxGeometry x="585" y="860" width="130" height="100" as="geometry" />
        </mxCell>
        <mxCell id="4GWgdeCQstLEpQiAV-2L-28" value="" style="edgeStyle=orthogonalEdgeStyle;rounded=0;orthogonalLoop=1;jettySize=auto;html=1;" edge="1" parent="1" source="4GWgdeCQstLEpQiAV-2L-25">
          <mxGeometry relative="1" as="geometry">
            <mxPoint x="510" y="1070" as="targetPoint" />
          </mxGeometry>
        </mxCell>
        <mxCell id="4GWgdeCQstLEpQiAV-2L-29" value="NO" style="edgeLabel;html=1;align=center;verticalAlign=middle;resizable=0;points=[];" vertex="1" connectable="0" parent="4GWgdeCQstLEpQiAV-2L-28">
          <mxGeometry x="-0.2" y="-2" relative="1" as="geometry">
            <mxPoint as="offset" />
          </mxGeometry>
        </mxCell>
        <mxCell id="4GWgdeCQstLEpQiAV-2L-37" value="" style="edgeStyle=orthogonalEdgeStyle;rounded=0;orthogonalLoop=1;jettySize=auto;html=1;" edge="1" parent="1" source="4GWgdeCQstLEpQiAV-2L-25" target="4GWgdeCQstLEpQiAV-2L-36">
          <mxGeometry relative="1" as="geometry" />
        </mxCell>
        <mxCell id="4GWgdeCQstLEpQiAV-2L-25" value="Is discrepancy explainable?&amp;nbsp;" style="rhombus;whiteSpace=wrap;html=1;" vertex="1" parent="1">
          <mxGeometry x="590" y="1020" width="120" height="100" as="geometry" />
        </mxCell>
        <mxCell id="4GWgdeCQstLEpQiAV-2L-32" value="" style="edgeStyle=orthogonalEdgeStyle;rounded=0;orthogonalLoop=1;jettySize=auto;html=1;" edge="1" parent="1" source="4GWgdeCQstLEpQiAV-2L-30" target="4GWgdeCQstLEpQiAV-2L-31">
          <mxGeometry relative="1" as="geometry" />
        </mxCell>
        <mxCell id="4GWgdeCQstLEpQiAV-2L-33" value="NO" style="edgeLabel;html=1;align=center;verticalAlign=middle;resizable=0;points=[];" vertex="1" connectable="0" parent="4GWgdeCQstLEpQiAV-2L-32">
          <mxGeometry x="-0.0194" y="4" relative="1" as="geometry">
            <mxPoint as="offset" />
          </mxGeometry>
        </mxCell>
        <mxCell id="4GWgdeCQstLEpQiAV-2L-35" value="" style="edgeStyle=orthogonalEdgeStyle;rounded=0;orthogonalLoop=1;jettySize=auto;html=1;" edge="1" parent="1" source="4GWgdeCQstLEpQiAV-2L-30" target="4GWgdeCQstLEpQiAV-2L-34">
          <mxGeometry relative="1" as="geometry" />
        </mxCell>
        <mxCell id="4GWgdeCQstLEpQiAV-2L-30" value="Is this a large Discrepancy?" style="rhombus;whiteSpace=wrap;html=1;" vertex="1" parent="1">
          <mxGeometry x="400" y="1027.5" width="115" height="85" as="geometry" />
        </mxCell>
        <mxCell id="4GWgdeCQstLEpQiAV-2L-31" value="ADJUST INVENTORY" style="whiteSpace=wrap;html=1;fillColor=#fff2cc;strokeColor=#d6b656;" vertex="1" parent="1">
          <mxGeometry x="202.5" y="1040" width="120" height="60" as="geometry" />
        </mxCell>
        <mxCell id="4GWgdeCQstLEpQiAV-2L-34" value="Wait for up to a week.&amp;nbsp;" style="whiteSpace=wrap;html=1;" vertex="1" parent="1">
          <mxGeometry x="397.5" y="1170" width="120" height="60" as="geometry" />
        </mxCell>
        <mxCell id="4GWgdeCQstLEpQiAV-2L-36" value="Adjust Inventory and send appropriate comms.&amp;nbsp;" style="whiteSpace=wrap;html=1;fillColor=#fff2cc;strokeColor=#d6b656;" vertex="1" parent="1">
          <mxGeometry x="590" y="1170" width="120" height="60" as="geometry" />
        </mxCell>
      </root>
    </mxGraphModel>
  </diagram>
  <diagram id="ZD5wll1Oz0Af_e3OQdJd" name="VendorCloseout">
    <mxGraphModel dx="1001" dy="526" grid="1" gridSize="10" guides="1" tooltips="1" connect="1" arrows="1" fold="1" page="1" pageScale="1" pageWidth="850" pageHeight="1100" math="0" shadow="0">
      <root>
        <mxCell id="0" />
        <mxCell id="1" parent="0" />
        <mxCell id="RuPIgRyfJDKA3BAx3fhV-1" value="Vendor Closeout Triggered" style="whiteSpace=wrap;strokeWidth=2;rounded=1;labelBackgroundColor=none;fillColor=#A8DADC;strokeColor=#457B9D;fontColor=#1D3557;" vertex="1" parent="1">
          <mxGeometry x="27" y="20" width="248" height="54" as="geometry" />
        </mxCell>
        <mxCell id="RuPIgRyfJDKA3BAx3fhV-2" value="Trigger Type" style="rhombus;strokeWidth=2;whiteSpace=wrap;rounded=1;labelBackgroundColor=none;fillColor=#A8DADC;strokeColor=#457B9D;fontColor=#1D3557;" vertex="1" parent="1">
          <mxGeometry x="80" y="124" width="141" height="141" as="geometry" />
        </mxCell>
        <mxCell id="RuPIgRyfJDKA3BAx3fhV-3" value="Initiate Closeout Process" style="whiteSpace=wrap;strokeWidth=2;rounded=1;labelBackgroundColor=none;fillColor=#A8DADC;strokeColor=#457B9D;fontColor=#1D3557;" vertex="1" parent="1">
          <mxGeometry x="32" y="338" width="236" height="54" as="geometry" />
        </mxCell>
        <mxCell id="RuPIgRyfJDKA3BAx3fhV-4" value="Generate Closeout Number in AS400" style="whiteSpace=wrap;strokeWidth=2;rounded=1;labelBackgroundColor=none;fillColor=#A8DADC;strokeColor=#457B9D;fontColor=#1D3557;" vertex="1" parent="1">
          <mxGeometry x="20" y="442" width="260" height="78" as="geometry" />
        </mxCell>
        <mxCell id="RuPIgRyfJDKA3BAx3fhV-5" value="Print Bin List" style="whiteSpace=wrap;strokeWidth=2;rounded=1;labelBackgroundColor=none;fillColor=#A8DADC;strokeColor=#457B9D;fontColor=#1D3557;" vertex="1" parent="1">
          <mxGeometry x="75" y="570" width="152" height="54" as="geometry" />
        </mxCell>
        <mxCell id="RuPIgRyfJDKA3BAx3fhV-6" value="Verify Physical Items with Printed List" style="whiteSpace=wrap;strokeWidth=2;rounded=1;labelBackgroundColor=none;fillColor=#A8DADC;strokeColor=#457B9D;fontColor=#1D3557;" vertex="1" parent="1">
          <mxGeometry x="20" y="674" width="260" height="78" as="geometry" />
        </mxCell>
        <mxCell id="RuPIgRyfJDKA3BAx3fhV-7" value="Run Closeout in AS400 with Generated Number" style="whiteSpace=wrap;strokeWidth=2;rounded=1;labelBackgroundColor=none;fillColor=#A8DADC;strokeColor=#457B9D;fontColor=#1D3557;" vertex="1" parent="1">
          <mxGeometry x="20" y="802" width="260" height="78" as="geometry" />
        </mxCell>
        <mxCell id="RuPIgRyfJDKA3BAx3fhV-8" value="Enter Items into Warehouse Returns Tracker" style="whiteSpace=wrap;strokeWidth=2;rounded=1;labelBackgroundColor=none;fillColor=#A8DADC;strokeColor=#457B9D;fontColor=#1D3557;" vertex="1" parent="1">
          <mxGeometry x="20" y="930" width="260" height="78" as="geometry" />
        </mxCell>
        <mxCell id="RuPIgRyfJDKA3BAx3fhV-9" value="Purchasing Monitors and Reviews" style="whiteSpace=wrap;strokeWidth=2;rounded=1;labelBackgroundColor=none;fillColor=#A8DADC;strokeColor=#457B9D;fontColor=#1D3557;" vertex="1" parent="1">
          <mxGeometry x="20" y="1058" width="260" height="78" as="geometry" />
        </mxCell>
        <mxCell id="RuPIgRyfJDKA3BAx3fhV-10" value="" style="curved=1;startArrow=none;endArrow=block;exitX=0.5;exitY=1;entryX=0.5;entryY=0;rounded=1;labelBackgroundColor=none;strokeColor=#457B9D;fontColor=default;" edge="1" parent="1" source="RuPIgRyfJDKA3BAx3fhV-1" target="RuPIgRyfJDKA3BAx3fhV-2">
          <mxGeometry relative="1" as="geometry">
            <Array as="points" />
          </mxGeometry>
        </mxCell>
        <mxCell id="RuPIgRyfJDKA3BAx3fhV-11" value="Calendar Frequency" style="curved=1;startArrow=none;endArrow=block;exitX=0.21;exitY=1;entryX=0.39;entryY=0;rounded=1;labelBackgroundColor=none;strokeColor=#457B9D;fontColor=default;" edge="1" parent="1" source="RuPIgRyfJDKA3BAx3fhV-2" target="RuPIgRyfJDKA3BAx3fhV-3">
          <mxGeometry relative="1" as="geometry">
            <Array as="points">
              <mxPoint x="89" y="301" />
            </Array>
          </mxGeometry>
        </mxCell>
        <mxCell id="RuPIgRyfJDKA3BAx3fhV-12" value="Bin Full" style="curved=1;startArrow=none;endArrow=block;exitX=0.79;exitY=1;entryX=0.61;entryY=0;rounded=1;labelBackgroundColor=none;strokeColor=#457B9D;fontColor=default;" edge="1" parent="1" source="RuPIgRyfJDKA3BAx3fhV-2" target="RuPIgRyfJDKA3BAx3fhV-3">
          <mxGeometry relative="1" as="geometry">
            <Array as="points">
              <mxPoint x="212" y="301" />
            </Array>
          </mxGeometry>
        </mxCell>
        <mxCell id="RuPIgRyfJDKA3BAx3fhV-13" value="" style="curved=1;startArrow=none;endArrow=block;exitX=0.5;exitY=1;entryX=0.5;entryY=0;rounded=1;labelBackgroundColor=none;strokeColor=#457B9D;fontColor=default;" edge="1" parent="1" source="RuPIgRyfJDKA3BAx3fhV-3" target="RuPIgRyfJDKA3BAx3fhV-4">
          <mxGeometry relative="1" as="geometry">
            <Array as="points" />
          </mxGeometry>
        </mxCell>
        <mxCell id="RuPIgRyfJDKA3BAx3fhV-14" value="" style="curved=1;startArrow=none;endArrow=block;exitX=0.5;exitY=1;entryX=0.5;entryY=0;rounded=1;labelBackgroundColor=none;strokeColor=#457B9D;fontColor=default;" edge="1" parent="1" source="RuPIgRyfJDKA3BAx3fhV-4" target="RuPIgRyfJDKA3BAx3fhV-5">
          <mxGeometry relative="1" as="geometry">
            <Array as="points" />
          </mxGeometry>
        </mxCell>
        <mxCell id="RuPIgRyfJDKA3BAx3fhV-15" value="" style="curved=1;startArrow=none;endArrow=block;exitX=0.5;exitY=1;entryX=0.5;entryY=0;rounded=1;labelBackgroundColor=none;strokeColor=#457B9D;fontColor=default;" edge="1" parent="1" source="RuPIgRyfJDKA3BAx3fhV-5" target="RuPIgRyfJDKA3BAx3fhV-6">
          <mxGeometry relative="1" as="geometry">
            <Array as="points" />
          </mxGeometry>
        </mxCell>
        <mxCell id="RuPIgRyfJDKA3BAx3fhV-16" value="" style="curved=1;startArrow=none;endArrow=block;exitX=0.5;exitY=1;entryX=0.5;entryY=0;rounded=1;labelBackgroundColor=none;strokeColor=#457B9D;fontColor=default;" edge="1" parent="1" source="RuPIgRyfJDKA3BAx3fhV-6" target="RuPIgRyfJDKA3BAx3fhV-7">
          <mxGeometry relative="1" as="geometry">
            <Array as="points" />
          </mxGeometry>
        </mxCell>
        <mxCell id="RuPIgRyfJDKA3BAx3fhV-17" value="" style="curved=1;startArrow=none;endArrow=block;exitX=0.5;exitY=1;entryX=0.5;entryY=0;rounded=1;labelBackgroundColor=none;strokeColor=#457B9D;fontColor=default;" edge="1" parent="1" source="RuPIgRyfJDKA3BAx3fhV-7" target="RuPIgRyfJDKA3BAx3fhV-8">
          <mxGeometry relative="1" as="geometry">
            <Array as="points" />
          </mxGeometry>
        </mxCell>
        <mxCell id="RuPIgRyfJDKA3BAx3fhV-18" value="" style="curved=1;startArrow=none;endArrow=block;exitX=0.5;exitY=1;entryX=0.5;entryY=0;rounded=1;labelBackgroundColor=none;strokeColor=#457B9D;fontColor=default;" edge="1" parent="1" source="RuPIgRyfJDKA3BAx3fhV-8" target="RuPIgRyfJDKA3BAx3fhV-9">
          <mxGeometry relative="1" as="geometry">
            <Array as="points" />
          </mxGeometry>
        </mxCell>
      </root>
    </mxGraphModel>
  </diagram>
</mxfile>
